<svg xmlns="http://www.w3.org/2000/svg" viewBox="0 0 2048 464" width="1131" height="256" preserveAspectRatio="none" xmlns:v="https://vecta.io/nano"><defs><linearGradient id="A" x1="184.371" y1="310.837" x2="76.798" y2="482.577" href="#H"><stop offset="0" stop-color="#02ecb7"/><stop offset="1" stop-color="#009eee"/></linearGradient><linearGradient id="B" x1="1412.71" y1="110.658" x2="1306.23" y2="288.552" href="#H"><stop offset="0" stop-color="#01cb98"/><stop offset="1" stop-color="#00b7a9"/></linearGradient><linearGradient id="C" x1="1850.09" y1="156.646" x2="1733.34" y2="321.451" href="#H"><stop offset="0" stop-color="#01e668"/><stop offset="1" stop-color="#02d893"/></linearGradient><linearGradient id="D" x1="236.387" y1="320.69" x2="363.563" y2="144.997" href="#H"><stop offset="0" stop-color="#cbdbef"/><stop offset="1" stop-color="#fff"/></linearGradient><linearGradient id="E" x1="489.651" y1="396.354" x2="412.308" y2="506.282" href="#H"><stop offset="0" stop-color="#ff2300"/><stop offset="1" stop-color="#fd0041"/></linearGradient><linearGradient id="F" x1="387.317" y1="300.605" x2="530.758" y2="71.729" href="#H"><stop offset="0" stop-color="#ff3d00"/><stop offset="1" stop-color="#ff9101"/></linearGradient><linearGradient id="G" x1="442.681" y1="368.035" x2="688.709" y2="126.421" href="#H"><stop offset="0" stop-color="#ff3b01"/><stop offset="1" stop-color="#ffd102"/></linearGradient><linearGradient id="H" gradientUnits="userSpaceOnUse"/></defs><path fill="url(#G)" d="M345.926 65.772c3.012-3.651 53.768-55.889 57.955-57.231C449.022.133 500.303 6.755 546.495 4.75c25.479-1.106 37.245.812 49.937 23.07 5.404 13.617 2.431 164.75 2.518 191.188l-.199 128.101-.445 70.534c-.129 17.947-10.505 29.791-26.737 36.074-2.169.854-4.397 1.549-6.666 2.081-10.211 2.218-60.641 1.218-74.21 1.204l-159.595-.061c18.126-18.75 36.01-37.723 54.985-55.624 2.038-1.923 3.93-4.007 5.808-6.085 4.861-4.957 9.169-9.717 13.781-14.91 2.37-1.706 5.391-3.563 7.881-5.187 24.95-1.786 70.44-.219 97.058-.449-1.432-12.331-.863-34.661-.885-47.657l-.127-83.12-.236-94.166c-.054-16.635-.745-40.654.652-56.759-16.049-.479-31.965.143-47.994.069l-81.082-.738c-16.075-.022-38.785 1.586-53.888-.501l-.709-1.212c1.752-6.839 14.1-19.989 19.584-24.83z"/><path fill="#fec302" d="M345.926 65.772c3.012-3.651 53.768-55.889 57.955-57.231C449.022.133 500.303 6.755 546.495 4.75c25.479-1.106 37.245.812 49.937 23.07-8.999 12.746-17.912 3.137-30.63 6.225-12.167 2.955-24.259 31.319-33.963 34.82-54.411-.052-108.82.268-163.226.96-8.487.08-17.121 1.411-22.687-4.053z"/><path fill="url(#F)" d="M510.015 92.984c-16.049-.479-31.965.143-47.994.069l-81.082-.738c-16.075-.022-38.785 1.586-53.888-.501l-.709-1.212c1.752-6.839 14.1-19.989 19.584-24.83 5.566 5.464 14.2 4.133 22.687 4.053l163.226-.96c2.282 27.03.155 54.241.057 81.218l.941 224.163c.054 3.129-.477 6.134-2.103 8.84l-4.23-.964c-5.104-.851-10.695 1.426-14.647-.65-1.839-2.728-1.224-2.974-1.246-6.786-1.432-12.331-.863-34.661-.885-47.657l-.127-83.12-.236-94.166c-.054-16.635-.745-40.654.652-56.759z"/><path fill="url(#E)" d="M331.098 456.941c18.126-18.75 36.01-37.723 54.985-55.624 2.038-1.923 3.93-4.007 5.808-6.085 9.694 1.428 16.835 2.244 26.671 2.304 2.442-.093 7.666-.435 9.881-.264 3.724.611 13.116.689 14.621 2.226 11.182-.031 22.443-.897 33.388-.68l1.259 5.896-2.192.476c5.398 11.299 61.829 22.258 74.442 33.945 4.031 3.735 13.027 15.134 14.942 16.663-10.211 2.218-60.641 1.218-74.21 1.204l-159.595-.061z"/><path fill="#f73b08" d="M418.562 397.536l9.881-.264c3.724.611 13.116.689 14.621 2.226 4.461 5.909 7.758 5.99 9.594 10.65-1.228.778-2.623 1.113-4.023 1.549.199 5.303 21.795 13.638 24.049 17.202-4.74 2.026-25.181-14.365-28.155-19.429-5.032-8.564-32.825-3.469-37.442-8.985 3.381-2.717 6.732-2.375 11.475-2.949z"/><path fill="#ff6e51" d="M413.553 375.135c24.95-1.786 70.44-.219 97.058-.449.022 3.812-.593 4.058 1.246 6.786 3.952 2.076 9.543-.201 14.647.65l4.23.964c-1.579 2.92-2.741 4.908-3.764 8.081-5.742 3.492-9.362 5.148-16.348 5.523-27.087 1.455-55.154-.674-82.179.582-2.215-.171-7.439.171-9.881.264-9.836-.06-16.977-.876-26.671-2.304 4.861-4.957 9.169-9.717 13.781-14.91 2.37-1.706 5.391-3.563 7.881-5.187z"/><path fill="#f73b08" d="M413.553 375.135c24.95-1.786 70.44-.219 97.058-.449.022 3.812-.593 4.058 1.246 6.786 3.952 2.076 9.543-.201 14.647.65-8.219 2.383-96.922.354-111.533.573-2.434.036-6.904-1.431-9.299-2.373 2.37-1.706 5.391-3.563 7.881-5.187z"/><path fill="url(#D)" d="M233.731 149.255c16.214-1.244 33.554.561 49.937.6 26.203.063 52.713-1.325 78.859-.096 4.403.207 9.769.567 13.862 2.243 2.843 1.165 5.161 3.996 6.301 6.794 2.122 5.207 2.416 144.725.635 148.637-2.703 5.935-10.697 9.278-16.486 11.329-3.478.347-7.176.107-10.67.014-38.904-1.029-78.236.153-117.094-.383-7.113.175-23.448-5.092-23.536-14.752l-.153-132.009c-.019-13.761 5.306-20.035 18.345-22.377z"/><path d="M732.656 118.509c50.444-7.935 97.739 26.614 105.519 77.083s-26.916 97.656-77.408 105.28c-50.273 7.591-97.211-26.921-104.957-77.169s26.621-97.294 76.846-105.194zm22.67 146.683c20.045-2.945 36.962-16.433 44.298-35.319s3.959-40.257-8.842-55.961-33.053-23.319-53.03-19.94c-30.426 5.146-51.04 33.823-46.224 64.302s33.268 51.404 63.798 46.918zm171.38-98.84c2.463-.43 9.293-.454 11.866-.331 15.765.754 30.586 7.738 41.203 19.417 24.615 27.208 21.505 85.18-11.84 104.904-24.622 14.566-53.295 13.61-72.874-8.532l-.014 23.94c-.16 14.009-.114 28.019.14 42.026a220.16 220.16 0 0 0-34.5.435l-.102-179.032c9.871-.524 23.034-.24 33.157-.322.459 4.417.602 9.332.827 13.803 9.612-9.789 18.458-14.867 32.137-16.308zm-13.252 100.469c10.622 1.905 15.446 2.117 26.176.869 25.245-12.213 30.444-48.32 6.23-65.494-7.914-5.613-18.577-4.955-27.941-3.895-20.102 5.518-26.634 27.827-21.511 46.281 3.043 10.957 8.379 15.547 17.046 22.239z" fill="#003491"/><path fill="url(#C)" d="M1805.49 187.576c1.3-2.048 2.74-4.011 4.3-5.875 25.37-30.204 84.17-16.733 87.46 28.053 2.13 29.135-1.04 59.468 1.32 87.389-12.51.053-23.27.202-35.72 1.083-.85-18.649.31-39.054-.05-57.849-.32-16.431.38-29.444-12.21-42.002-9.66-.545-14.24-.629-23.48 2.125-1.26 1.184-2.51 2.393-3.72 3.625-13.84 14.029-9.61 47.256-9.48 67.375l-.09 25.801c-12.32-.103-22.52.118-34.78.936-1.12-31.356 7.86-75.777-12.18-99.915-8.79-.644-14.17-.402-22.76 1.191-13.29 12.718-14.36 25.397-13.94 42.981.44 18.183-.1 36.503.87 54.674a1109.07 1109.07 0 0 0-36.75.356c-.41-40.601.04-87.799.74-128.357 5.32-.281 30.06-1.29 33.17 1.137 1.45 4.068.86 8.978.64 13.339l1.14-1.376c9.95-11.929 16.53-14.479 31.78-15.859 20.24-2.968 31.92 6.365 43.74 21.168z"/><path fill="#00e268" d="M1974.78 166.365l2.82-.134c19.12-.796 35.63 2.893 50.08 16.089 18.87 17.236 18.07 36.747 18.99 60.484-29.85 1.093-66.77-1.311-95.54 1.002 12.4 23.763 28.2 33.731 55.55 22.159 4.25-1.8 6.62-7.662 12.33-8.36 3.22.129 4.59 1.979 6.89 4.24 10.14 17.999 21.99 18.891-6.35 31.288-40.68 17.794-95.07 1.489-102.66-46.63-6.65-42.153 14.84-74.469 57.89-80.138zm-13.42 34.626c-4.21 6.06-6.31 11.297-9.28 18.045 12.28.876 22.83.922 35.17.908 8.62-.08 17.55-.028 26.12-.676-6.88-16.399-13.72-25.602-33.38-23.993-7.4 1.012-11.81 2.221-18.63 5.716z"/><path fill="#02ce90" d="M1600.34 166.345l9.25-.358c16.44-.119 33.53 1.571 45.86 13.863a48.11 48.11 0 0 1 12.17 20.698c4.61 16.261 3.25 75.752 3.27 96.802-7.83.086-27.04.638-33.81-.5-2.28-3.629-.95-8.972-.21-13.207-21.69 20.215-50.34 23.033-74.17 4.404-7.56-6.654-11.29-11.252-12.26-21.592-5.22-55.61 51.36-44.664 84.39-47.299.32-36.119-42.83-23.19-62.74-14.612-4.06-5.301-11.04-13.566-12.36-19.975 1.05-9.741 32.44-17.651 40.61-18.224zm5.08 108.121c11.57-1.084 18.34-5.203 25.69-14.069l3.1-3.839.11-13.783c-6.62-.466-11.02-.548-17.66-.331-10.31.311-21.11.494-28.6 8.653-12.45 13.578 6.46 21.857 17.36 23.369z"/><path fill="url(#B)" d="M1326.48 122.471c13.26.024 104.15-1.352 111.63 1.293 3.36 5.188 1.97 25.593 1.24 32.123-28.81.472-58.58.115-87.42-.087l-.05 43.201 80.6-.028c.33 7.239.05 16.396.02 23.777.1 3.278-.05 7.074-.11 10.396-17.43-2.199-60.67-.776-80.62-.929.35 21.48-.01 44.018-.02 65.584-12.16-.793-25.06-.217-37.28.078-.99-20.919-.38-46.096-.37-67.297l-.04-107.002 12.42-1.109z"/><path d="M1068.8 166.381c2.5-.572 7.06-.424 9.68-.46 26.3-.362 47.8 15.25 56.85 39.824 4.71 12.786 3.78 24.772 3.62 38.333a1558.34 1558.34 0 0 0-94.31-.512c7.58 25.786 31.91 30.296 55.13 22.716 2.78-.908 7.77-5.91 12.21-7.744 3.59.456 2.75.528 5.77 3.408 2.38 3.014 11.91 13.855 11.74 16.783-.68 11.758-25.49 18.759-35.01 19.85-21.44 2.456-43.57.821-61.16-12.802-27.71-20.941-30.6-68.608-10.2-95.249 11.82-15.397 26.72-21.709 45.68-24.147zm-24.14 52.754l35.09.461 26.16-.101c-7.05-19.038-15.06-25.467-35.69-24.269-14.5 5.58-18.39 7.731-25.03 22.7l-.53 1.209zm182.43-52.772a40.36 40.36 0 0 1 4.44-.396c54.98-1.793 54.4 44.3 54.29 84.198-.17 15.768-.1 31.538.21 47.304-10.68-.69-24.54-.438-35.12.368-.24-7.851.04-16.069-.07-23.939-.4-29.345 8.87-93.867-42.72-72.618-21.51 15.566-13.3 36.649-14.78 60.105-.69 11.045-.18 24.898.62 35.935-11.66-.358-23.34-.214-34.99.432.02-41.091 1.21-88.228-.12-128.789l32.85-.185.31 16.263c10.02-11.385 19.89-16.939 35.08-18.678z" fill="#003491"/><path fill="#02ce90" d="M1530.56 166.368c2.37-.279 8.59-.226 11.25-.282.42 10.803.06 23.732 0 34.701-26.06-5.682-47.08 2.72-47.14 32.801l.21 64.377c-9.56-.991-26.06-.44-35.65.055-.99-3.937-.55-33.591-.53-40.122l-.03-88.866c10.98-.368 24.02-.06 35.04.21.76 5.988.76 8.215.47 14.192 10.52-11.625 20.7-15.71 36.38-17.066z"/><path fill="#4546f5" d="M115.583 6.108l113.196-.047c16.688 0 49.402.902 64.761-1.51-9.175 15.533-26.459 28.688-39.519 40.962-8.28 7.781-16.45 16.213-24.282 24.455-8.32 8.184-14.862 14.645-23.939 21.975l-114.807.072-.017 95.56-54.917 55.162C28.952 249.812 8.882 271.874 0 274.126V71.453 45.296C10.131 5.525 33.262 5.769 67.141 6.117l48.442-.008z"/><path fill="#6e76fe" d="M115.583 6.108l113.196-.047c16.688 0 49.402.902 64.761-1.51-9.175 15.533-26.459 28.688-39.519 40.962-8.28 7.781-16.45 16.213-24.282 24.455-36.743-1.653-73.464.099-110.117-2.766-5.353-.418-11.857.169-17.331.399-8.697.516-15.077.831-22.935 5.226 3.728-8.868 3.016-15.55 4.41-24.764.7-4.626 2.107-4.44 6.221-7.255 1.929-10.075-12.649-13.221-20.085-15.746-1.973-4.017-2.245-13.84-2.761-18.947l48.442-.008z"/><path fill="#3796fe" d="M67.141 6.117l48.442-.008-11.364 2.372c-4.233 6.777 7.993 16.144 12.853 19.981 4.694 3.705 9.353-.595 10.385 1.595-2.995.319-12.021 5.436-16.665 6.832-2.692 3.946-10.266 16.047-14.253 17.001 2.112-4.855 11.358-17.793 11.533-20.125-4.725-3.626-12.165-1.946-15.977 2.883-8.14 10.311-6.348 21.641-9.654 33.146 2.706-.203 2.755-1.225 4.72-1.835 3.844-1.195 11.26-1.217 15.13-.356-8.697.516-15.077.831-22.935 5.226 3.728-8.868 3.016-15.55 4.41-24.764.7-4.626 2.107-4.44 6.221-7.255 1.929-10.075-12.649-13.221-20.085-15.746-1.973-4.017-2.245-13.84-2.761-18.947z"/><path fill="#0488fe" d="M0 45.296C10.131 5.525 33.262 5.769 67.141 6.117c.516 5.107.788 14.93 2.761 18.947 7.436 2.525 22.015 5.67 20.085 15.746-4.115 2.816-5.521 2.629-6.221 7.255-1.394 9.214-.682 15.895-4.41 24.764-6.524 5.175-11.08 10.459-11.413 19.102-.494 12.814-.126 25.691-.536 38.635-.935-3.584-.441-31.412-.407-36.993-2.026 7.39-8.162 10.21-9.367 14.861l2.298 1.741c-3.288 8.692-22.462 7.732-29.799 11.032-8.768 3.942-16.353 10.59-25.334 14.274l-.73 5.234-.698-.192c-2.985-11.43 1.116-65.477-1.912-69.656L0 71.453V45.296z"/><path fill="url(#A)" d="M0 366.683c6.786-11.567 18.681-20.588 27.853-30.439 19.853-21.322 41.167-40.246 62.539-59.984 2.51 28.951-.276 68.337.82 98.619l132.997-.047c19.705-.017 52.404-1.088 71.076.601-3.353 5.502-74.647 78.972-81.913 79.94-21.495 2.86-73.845 1.563-98.9 1.786-23.653.211-54.287.492-78.181-.801-3.287-.178-12.843-4.77-16.166-6.916C7.953 441.581 4.814 432.081 0 419.717v-53.034z"/></svg>